<?xml version="1.0" encoding="utf-8"?>
<!-- Generator: Adobe Illustrator 19.0.1, SVG Export Plug-In . SVG Version: 6.00 Build 0)  -->
<svg version="1.1" id="Layer_1" xmlns="http://www.w3.org/2000/svg"  x="0px" y="0px"
	 viewBox="0 0 150 150" style="enable-background:new 0 0 150 150;" xml:space="preserve">
<style type="text/css">
	.st0{fill:#D22027;}
</style>
<path class="st0" d="M75,0C33.6,0,0,33.6,0,75s33.6,75,75,75s75-33.6,75-75S116.4,0,75,0z M49.9,98.7c-0.6,1-1,2-1,3.1
	c0,2.1-0.1,4.2,0.6,6.3c0.6,1.8-0.1,2.8-2,3.1c-0.3,0.1-0.6,0.1-0.8,0.1c-1.1,0-2.2,0-3.4,0c0-0.2,0-0.4,0.1-0.5
	c0.5-1.4,0.3-2.8,0.1-4.2c-0.3-1.9-0.3-3.8-0.4-5.7c0-0.2,0.1-0.4,0.2-0.6c1-1.4,1.5-2.9,1.7-4.5c0-0.1,0.1-0.3,0.1-0.3
	c1.9,0.3,3.8,0.5,5.9,0.8C50.6,97.1,50.3,98,49.9,98.7z M51.8,92.9c-2,0.4-3.9,0.3-5.8-0.5c-0.2-0.1-0.6-0.5-0.6-0.7
	c0.2-2.4,0.5-4.9,1.9-7c0.7-1,0.9-1.1,1.9-0.2c2.5,2.1,5.2,3.7,8.5,4.8C56.1,91.3,54.1,92.4,51.8,92.9z M91.2,107.9
	c0.5,1.7-0.1,2.8-1.9,3c-1.4,0.2-2.8,0-4.3,0c0.6-1.6,0.2-3.1-0.1-4.7c-0.3-1.7-0.2-3.6-0.3-5.4c0-0.1,0.1-0.2,0.1-0.3
	c1.6-2.1,1.8-4.6,2.1-7.1c0.1-0.9,0.3-1.7,0.6-2.5c0.1-0.2,0.4-0.5,0.6-0.5c1.6,0.3,3.3,0.6,5,0.9c-0.6,2.6-0.1,5.5-2,7.8
	c-0.3,0.4-0.4,1-0.5,1.5C90.5,103.1,90.4,105.5,91.2,107.9z M118.9,66.9c-1.6,2.3-3.5,4-6.4,4.2c-2.5,0.2-4.6-0.9-6.4-2.5
	c-1-0.9-2-1.3-3.2-1.5c-2.2-0.3-4.2-1.3-5.9-2.7c-0.8-0.7-1.7-0.6-2.3,0.1c-0.5,0.7-0.4,1.6,0.4,2.2c1.9,1.6,4,2.6,6.4,3.2
	c0.3,0.1,0.7,0.2,1,0.2c-0.4,3.9-0.8,7.7-1.3,11.5c-0.1,0.8-0.4,1.6-0.7,2.4c-1.1,2.7-3.2,4-6.1,4.2c-2.5,0.1-4.9-0.4-7.3-1.2
	c-0.7-0.2-1-0.1-1.3,0.5c-1.3,2.2-1.8,4.6-1.9,7c-0.1,1.6-0.5,3.1-1.4,4.5c-0.4,0.5-0.6,1.3-0.6,1.9c-0.1,2.4-0.2,4.8,0.6,7.2
	c0.5,1.5-0.2,2.6-1.8,2.8c-1.4,0.2-2.8,0.2-4.3,0.1c-0.9,0-1.3-0.7-1.3-1.7c0-4.4,0.1-8.8,0-13.2c-0.1-2.9-0.4-5.8-0.7-8.7
	c0-0.3-0.2-0.7-0.2-0.7c-2.7,0.3-5.3,0.9-8,0.9c-5.6,0.1-10.7-1.4-15-5.2c-0.3-0.3-0.7-0.5-1.1-0.7c-1.8-1.1-3.4-0.8-4.7,0.8
	c-1.7,2.1-2.5,4.5-2.8,7.2c-0.2,2-0.3,4-0.7,5.9c-0.2,1.1-0.8,2.1-1.1,3.2c-0.3,0.8-0.7,1.7-0.8,2.5c-0.2,2.3-0.2,4.6,0.6,6.9
	c0.5,1.5-0.2,2.6-1.7,2.8c-1.4,0.2-2.9,0.2-4.4,0.1c-0.9-0.1-1.2-0.8-1.2-1.7c0-4.4,0.1-8.8,0-13.2c-0.1-3-0.3-6.1-0.8-9.1
	c-0.4-2.4-1.2-4.8-1.6-7.2c-0.3-1.6-0.5-3.3-0.4-5c0-4.5,0-8.9,0.4-13.4c0.3-3.9,1.6-7.6,4.8-10.2c2.2-1.8,4.7-2.6,7.4-2.8
	c4.7-0.5,9.3,0.3,13.9,0.8c4.6,0.5,9.2,1,13.8,1.4c2.6,0.2,5.1-0.2,7.6-0.8c3.7-0.9,7.3-2,11.3-2.1c-0.6-0.8-1.2-1.5-1.7-2.2
	c-1.5-2.3-1.2-3,1.3-3.9c2.4-0.9,4.7-0.8,6.9,0.7c0.2,0.1,0.4,0.3,0.6,0.4c0.1,0,0.1,0,0.2,0c0.8-0.7,1.6-1.4,2.4-2.1
	c3.1-2.3,6.2-2.4,9.3-0.2c0.7,0.5,1.3,0.5,2,0.3c1.1-0.4,2.1-0.7,3.2-1c2-0.4,3.8,0.1,5.5,1.1c0.2,0.1,0.3,0.6,0.3,0.8
	c-0.4,2.7-1.7,4.9-4.1,6.3c-0.2,0.1-0.4,0.4-0.4,0.6c0,2,0,4.1,0.2,6.1c0.2,2.2,1,4.2,2.2,6c0.6,0.9,1.2,1.8,1.7,2.7
	C119.8,64.5,119.7,65.7,118.9,66.9z"/>
</svg>
