<?xml version="1.0" encoding="utf-8"?>
<!-- Generator: Adobe Illustrator 19.0.1, SVG Export Plug-In . SVG Version: 6.00 Build 0)  -->
<svg version="1.1" id="Layer_1" xmlns="http://www.w3.org/2000/svg"  x="0px" y="0px"
	 viewBox="0 0 150 150" style="enable-background:new 0 0 150 150;" xml:space="preserve">
<style type="text/css">
	.st0{fill:#D22027;}
</style>
<path class="st0" d="M75,0C33.6,0,0,33.6,0,75s33.6,75,75,75s75-33.6,75-75S116.4,0,75,0z M54.6,55.7c7.7-7.7,17.2-7.2,26.8-4.9
	c0.6,3.2,1.5,6.3,2.4,9.2c-1.9-0.5-3.7-1-5.4-1.4l7.1,7.1c1.1,3.7,1.9,6.7,2.3,9.4L70.3,57.7c-2.2,0-4.1,0.4-5.9,1.2l23.6,23.6
	c-0.4,1.6-1.2,3-2.4,4.2c-0.1,0.1-0.1,0.1-0.2,0.2L60.2,61.8c-1.2,1.3-2.1,2.7-2.7,4.4l22.9,22.9c-2.1,0.4-4.4,0.3-7,0L56.6,72.2
	c-0.1,4.1,0.7,8.8,1.9,13.6c-0.5-0.1-1-0.3-1.4-0.4c-2.5-0.7-5-1.4-7.6-2C47.4,73.1,47.4,62.9,54.6,55.7z M59.5,130.2
	c-1.6,1.6-4.2,1.6-5.9,0c-1.6-1.6-1.6-4.2,0-5.9c0.6-0.6,1-1.2,1.4-1.9L30.6,98.2c1.8-0.5,4.1-0.5,6.9-0.2l18.9,18.9
	c0.1-1.9-0.1-4-0.4-6.2L44.6,99.3c2.7,0.6,5.4,1.4,8.1,2.1c3.4,0.9,6.9,1.9,10.5,2.7C65.4,114.2,65.9,123.8,59.5,130.2z M94.3,95.5
	c-4.7,4.7-10.6,6.3-17,6.3c-7.6,0-15.8-2.2-23.5-4.3c-11.8-3.2-22.9-6.2-28.1-1c-1.6,1.6-4.2,1.6-5.9,0c-1.6-1.6-1.6-4.2,0-5.9
	c8.6-8.6,22.6-4.8,36.2-1.1c12.7,3.4,25.7,7,32.5,0.2c6.1-6.1,4.2-14.5,0.3-27.4c-4.2-13.8-8.9-29.4,4.1-42.4c1.6-1.6,4.2-1.6,5.9,0
	c1.6,1.6,1.6,4.2,0,5.9c-9.5,9.5-5.9,21.5-2.1,34.2C100.3,71.8,104.4,85.4,94.3,95.5z M102.5,65c-0.6-2.2-1.3-4.4-1.9-6.5
	c-0.3-0.9-0.5-1.7-0.8-2.5c3.4,0.8,6.7,1.3,9.9,1.3L97.1,44.6c-0.4-2.6-0.4-4.9-0.1-7.1L116,56.4c1.4-0.4,2.9-1.1,4.2-1.9L98.5,32.9
	c0.7-1.4,1.7-2.8,3-4.1l22.7,22.7c0.1-0.1,0.1-0.1,0.2-0.2c1.6-1.6,4.2-1.6,5.9,0c1.6,1.6,1.6,4.2,0,5.9
	C121.7,65.7,112,66.6,102.5,65z"/>
</svg>
