<?xml version="1.0" encoding="utf-8"?>
<!-- Generator: Adobe Illustrator 19.0.1, SVG Export Plug-In . SVG Version: 6.00 Build 0)  -->
<svg version="1.1" id="Layer_1" xmlns="http://www.w3.org/2000/svg"  x="0px" y="0px"
	 viewBox="0 0 150 150" style="enable-background:new 0 0 150 150;" xml:space="preserve">
<style type="text/css">
	.st0{fill:#D22027;}
</style>
<path class="st0" d="M75,0C33.6,0,0,33.6,0,75s33.6,75,75,75s75-33.6,75-75S116.4,0,75,0z M109.5,57.7c1.2-0.7,3.3-0.1,4.9-0.1
	c-0.7,1.5-1.1,3.5-2.2,4.5c-1.2,1-3.2,1-4.8,1.4c-0.4-0.5-0.7-1-1.1-1.5C107.3,60.5,108.1,58.5,109.5,57.7z M102.6,42.4
	c2.5-0.4,3.2,0.7,3.4,2.9c1,9-4.8,15.3-14.9,15.8C88.5,51.8,93.5,43.9,102.6,42.4z M99.3,67.8c-0.1,4.6-3.3,8-7.2,7.3
	c-0.7-0.1-1.8-1.7-1.8-2.4c0.4-4,4.2-6.1,8.8-5.2C99.2,67.6,99.3,67.7,99.3,67.8z M91.6,33.1c2.2,5.1,1,7.8-4.4,9.8
	C84.6,38,86.1,34.5,91.6,33.1z M83.9,48.4c4.1,7.1,2.7,12-4.1,15.3C75.1,57.8,76.6,52.1,83.9,48.4z M72,23.4
	c9.4,5.6,9.6,18.1,0.1,25.6C63.1,40.9,63.1,31.7,72,23.4z M65.4,72.8c0.3,3-1,3.7-3.7,3.2c-6.1-1.2-9-5.8-7.7-12.9
	C61.5,63.6,64.8,66.6,65.4,72.8z M61.8,94.4c-1.3,3.7-3.7,4.8-7.4,3.3C55.8,93.1,57.5,92.3,61.8,94.4z M50.8,35
	c10.7,3.3,14.3,10.8,10,21.4C49.8,53.5,45.8,44.7,50.8,35z M48.1,62.3c-7.2-0.2-9.8-2.8-9.7-9.4C45.1,51.7,48.9,55.3,48.1,62.3z
	 M28.4,66.6c8.5-6,18.8-1.7,21.7,9.1C40.5,81.4,31,76.6,28.4,66.6z M36.8,86.8c4.5-6.6,11.6-6.6,17.7,0
	C48.5,93.4,42.6,93.3,36.8,86.8z M100.3,126.6c-15.8,0-31.7,0-47.5,0c-0.2-0.4-0.3-0.9-0.5-1.3c2.9-1.2,5.9-2.4,8.7-3.8
	c3-1.5,7.2-0.3,8.9-4.6c2.3-5.9,4.4-11.9,0.4-17.7c-4.2-6.1-8.8-12-13.7-18.6c5.9,3.6,11.4,7,17.9,10.9c-1.4-11.1-2.8-21.8-4.2-32.5
	c0.2,0,0.4,0,0.6-0.1c2.4,6.1,4.9,12.2,7.5,18.8c2.7-3.3,5.1-6.2,7.5-9.1c-1.3,7-6.1,13.2-2.8,20.9c4.2-2.9,8.1-5.7,12-8.4
	c0.2,0.2,0.4,0.4,0.6,0.6c-2.2,2.9-4.5,5.7-6.7,8.6c-3.1,4.1-4.4,8.5-3.7,13.8c0.5,3.7,0.2,7.7-0.6,11.3c-0.7,3.3,0.5,4.1,3.3,4.9
	c4.4,1.2,8.6,3,12.8,4.5C100.7,125.5,100.5,126.1,100.3,126.6z M94.2,90.3c6.2-5.3,12.2-4.2,16.7,3.3
	C104.1,98.8,97.4,97.4,94.2,90.3z M100.5,78.7c3.5-9.7,12.2-12.5,21-6.8C117.6,81.9,108.8,84.6,100.5,78.7z"/>
</svg>
