<?xml version="1.0" encoding="utf-8"?>
<!-- Generator: Adobe Illustrator 19.0.1, SVG Export Plug-In . SVG Version: 6.00 Build 0)  -->
<svg version="1.1" id="Layer_1" xmlns="http://www.w3.org/2000/svg"  x="0px" y="0px"
	 viewBox="0 0 150 150" style="enable-background:new 0 0 150 150;" xml:space="preserve">
<style type="text/css">
	.st0{fill:#D22027;}
</style>
<g>
	<path class="st0" d="M63.8,96.4c0,2.2,2.8,4.2,6.3,5.9V91.4C66.4,92.8,63.8,94.4,63.8,96.4z"/>
	<path class="st0" d="M75,0C33.6,0,0,33.6,0,75s33.6,75,75,75s75-33.6,75-75S116.4,0,75,0z M33.6,70.8c0-3.1,2.1-6,5.9-8.1
		c5.5-3,14.3-3.9,21.5,0.8c1.8,1.2,2.3,3.6,1.1,5.4c-1.2,1.8-3.6,2.3-5.4,1.1c-3.1-2-7.4-2.6-11.3-1.4c-2.4,0.7-3.7,1.8-4,2.3
		c0.2,5.6,11,8,21.9,9.9c-3.4,1.6-6.4,3.7-8.5,6.3C43.5,84.7,33.6,80.6,33.6,70.8z M70.8,127.6c0.2,0.9,0.6,1.7,1.2,2.4
		c0,0-0.1,0-0.1,0c-0.3,0-0.5,0-0.8-0.1c-4.3-0.9-11.6-4.3-11.6-11.6c0-2.7,1.1-4.8,3-6.5c2.3,1.5,4.9,2.8,7.5,4.1
		c-1.6,0.9-2.7,1.7-2.7,2.4c0,2.3,4.3,3.7,5.4,3.9c0,0,0.1,0,0.1,0C71.2,123.6,70.4,125.6,70.8,127.6z M89.8,107.5
		c-2.6-1.5-5.5-2.9-8.5-4.3c0,0-0.1,0-0.1-0.1c4.2-1.7,7.9-3.8,7.9-5.9c0-2.2-3.3-3.8-7.8-5c1.8-0.5,3.5-0.9,4.9-1.2
		c2.2-0.5,4.5-1.1,6.8-1.7c2.4,2,3.9,4.6,3.9,8C96.8,101.9,93.8,105.1,89.8,107.5z M84.9,87.9c-1.6,0.3-3.4,0.7-5.1,1v18
		c4.9,2.5,9.2,5.7,9.2,11c0,7.1-7.1,10.9-11.3,12c-0.3,0.1-0.7,0.1-1,0.1c-1.7,0-3.3-1.2-3.8-2.9c-0.5-2.1,0.7-4.2,2.8-4.7
		c1.2-0.3,5.5-2,5.5-4.5c0-0.6-0.6-1.3-1.4-2v0.1c0,2.7-2.2,4.8-4.8,4.8c-2.7,0-4.8-2.2-4.8-4.8V111c-6.9-3.1-14.1-6.9-14.1-14.5
		c0-7.8,7.2-11.4,16.3-13.8c0.8-0.5,1.6-0.8,2.6-0.8c0.1,0,0.2,0,0.4,0c2.6-0.6,5.3-1.1,8-1.7c11.3-2.2,24.1-4.8,24.4-11.2
		c-0.3-0.5-1.6-1.6-4-2.3c-4-1.2-8.2-0.7-11.3,1.4c-1.8,1.2-4.2,0.7-5.4-1.1c-1.2-1.8-0.7-4.2,1.1-5.4c7.2-4.7,15.9-3.8,21.5-0.8
		c3.7,2,5.9,5,5.9,8.1C115.5,81.8,99.3,85,84.9,87.9z M125.4,54.3c-1.1,0.2-2.2-0.1-3.3,0.1c-1.1,0.2-2.2,0.6-3,1.2
		c-2.9,2.2-6.1,2-9.4,1.6c-1.1-0.1-2.1-0.5-3.2-0.9c-1.4-0.5-2.7-0.4-4.3-0.2c-2,0.3-4.4-0.5-6.4-1.4c-2.2-1-3.9-2.1-6.6-1.5
		c-3,0.6-6-0.8-8.4-3c-0.6-0.5-1.2-1.1-2.1-2c-0.2,2.7-0.4,5-0.5,7.2c-0.2,6-0.3,12.1-0.4,18.1c-0.1,4.3,0.2,3.5-3.8,4.6
		c-0.5,0.1-1,0.1-1.7,0.2c-0.2-9.9-0.5-19.8-0.7-30.1c-0.9,0.7-1.3,1.1-1.8,1.5c-3.1,2.8-6.6,4.1-10.8,3c-0.7-0.2-1.6,0.3-2.4,0.6
		c-1.9,0.8-3.6,1.8-5.5,2.6c-0.8,0.3-2.1,0.6-2.7,0.2c-2-1.3-3.6-0.3-5.4,0.2c-3.3,1-6.8,1.8-9.8,0c-2.8-1.8-5.6-2.3-8.7-2.4
		c-2.4-0.1-4.2-1.5-5.3-3.7c0-0.6,0-1.2,0-1.7c3.5-2.5,7.1-4.8,10.3-7.5c4.9-4.2,9.8-8.3,15.7-10.9c3.1-1.4,6.3-2.3,9.7-2.1
		c3.2,0.2,5.5,1.7,6.7,4.7c0.7,2,1.4,4,2.3,5.9c1.1,2.4,2.9,3.2,5.1,2.5c0.8-0.3,2-1.1,2.1-1.7c0.1-1-0.5-2.3-1.2-2.9
		c-3.4-2.8-4.8-6.6-3.5-10.5c1.3-3.8,4.6-6.3,8.5-6.3c4,0,7.4,2.3,8.7,6.1c1.3,3.6,0.1,7.8-2.9,10.2c-0.7,0.6-1.6,1.2-1.8,2
		c-0.8,2.1,1.8,4.1,4.4,3.2c1.3-0.5,2.6-1.8,3.3-3.1c1-1.6,1.4-3.5,2-5.3c1.2-3.2,3.5-4.7,6.8-4.8c5.7-0.3,10.6,2,15.1,5.1
		c4.5,3.1,8.6,6.9,12.9,10.4c2,1.6,4.1,3.1,6.2,4.4c1.4,0.8,1.6,1.8,1,3.1C129.6,53.4,127.5,53.9,125.4,54.3z"/>
</g>
</svg>
