<?xml version="1.0" encoding="utf-8"?>
<!-- Generator: Adobe Illustrator 19.0.1, SVG Export Plug-In . SVG Version: 6.00 Build 0)  -->
<svg version="1.1" id="Layer_1" xmlns="http://www.w3.org/2000/svg"  x="0px" y="0px"
	 viewBox="0 0 150 150" style="enable-background:new 0 0 150 150;" xml:space="preserve">
<style type="text/css">
	.st0{fill:#D22027;}
</style>
<g>
	<path class="st0" d="M73.6,67.6c-4.1,0-8,4.3-8,8.8c0,4.2,4.3,8.1,8.7,8.2c4.1,0.1,7.9-3.9,8-8.2C82.3,72,78,67.6,73.6,67.6z"/>
	<path class="st0" d="M75,0C33.6,0,0,33.6,0,75s33.6,75,75,75s75-33.6,75-75S116.4,0,75,0z M121.8,67.9c1.7,1,3.5,3.1,3.8,5
		c0.2,1.1-2.3,3.6-3.8,3.8c-4.7,0.5-9.5,0.5-14.2,0.1c-1.5-0.2-4-2.4-4-3.7c0-1.5,2-3.6,3.6-4.3c2.8-1,5.9-1.1,8.2-1.5
		C118.1,67.5,120.4,67,121.8,67.9z M107.7,56.8c-0.1,3.9-7.9,13.5-11.6,13.9c-1.2,0.1-3.2-0.7-3.8-1.6c-0.5-0.8,0.1-2.9,0.9-3.8
		c1.6-1.9,4-3.1,5.4-5c0.9-1.2,1.3-3.9,0.6-4.9c-0.7-1-3.5-1.4-4.8-0.8c-2.6,1.1-4.7,3.3-7.2,4.6c-1.2,0.7-2.9,0.4-4.4,0.6
		c0.1-1.6-0.5-3.9,0.3-4.7c3.5-3.2,7.1-6.5,11.2-8.6C99.5,43.8,107.9,50.7,107.7,56.8z M89,28.3c0.8,0.3,1.5,0.6,2.3,0.9
		c-2.3,7.7-6.1,14.8-9,22.2c-0.9-0.3-1.8-0.7-2.7-1C82.7,43.1,85.8,35.7,89,28.3z M69.2,29.6c0.8-1.6,3.2-3.3,5-3.4
		c1.3-0.1,3.9,2.4,3.9,3.7c-0.2,5.3-1,10.5-1.9,15.7c-0.2,1-2.4,2.6-3.2,2.4c-1.6-0.4-3.6-1.8-4.1-3.2C68,42.6,68.2,40,68,37.6
		C68.3,34.8,68.1,31.9,69.2,29.6z M45.5,46.8c1-4.2,3.5-6.2,8-5.1c7.5,1.9,13.7,9.1,12.6,16.1c-3.1-2.8-5.4-5.5-8.2-7.2
		c-1.5-0.9-4-0.4-6-0.5c0.7,1.8,1.2,3.6,2,5.3c0.4,0.8,1.6,1.1,2.1,1.9c1.1,1.9,2,3.9,3,5.8c-2.1-0.4-4.4-0.3-6.2-1.2
		C46,58.2,43.9,53.5,45.5,46.8z M20.5,65.8c0.2-0.9,0.3-1.8,0.5-2.8c9,1.4,18,2.9,27,4.3c-0.2,0.9-0.3,1.8-0.5,2.8
		C38.5,68.6,29.5,67.2,20.5,65.8z M27.1,79.5c-1.1,0-3-2.7-3-4.1c0-1.3,1.8-3.4,3.2-3.9c2.4-0.8,5.2-0.7,8-0.9
		c2.7,0.3,5.6,0.3,8.3,1.1c1.3,0.4,2.8,2.1,3.1,3.4c0.2,1-1.3,3.3-2.2,3.4C38.7,79.1,32.9,79.6,27.1,79.5z M50,107.2
		c-6.9,0.2-13.5-8.9-10-15c2.5-4.2,7-7.3,10.9-10.6c0.6-0.5,2.4,0.3,3.6,0.5c-0.3,1.2-0.2,2.6-0.9,3.5c-1.6,1.9-4.2,3.2-5.1,5.3
		c-1,2.2-0.6,5-0.8,7.6c2.4-0.2,5,0,7.1-0.9c2.2-1,3.7-3.3,5.7-4.7c0.9-0.6,3.1-0.9,3.4-0.5c0.8,1,1.3,2.8,0.9,4
		C63.8,100.2,53.9,107.1,50,107.2z M65.9,123.8c-0.8-0.2-1.7-0.3-2.5-0.5c1.6-8,3.1-16.1,4.7-24.1c0.9,0.2,1.8,0.3,2.7,0.5
		C69.2,107.7,67.5,115.8,65.9,123.8z M82.1,116c-0.4,1.6-2.3,3.8-3.8,4c-1.3,0.2-3.7-1.7-4.3-3.1c-1-2.6-1-5.5-1.3-8.4
		c-0.4-0.3-0.7-0.5-1.1-0.8c1.7-2.9,3.4-8.3,5.2-8.3c4.7-0.1,4.8,5,5.3,8.7C82.4,110.7,82.7,113.5,82.1,116z M74.4,88.6
		c-7,0-13-5.9-12.9-12.7c0.2-6.4,5.9-12.5,11.9-12.6c6.4-0.1,13,6.6,13,13C86.3,82.9,80.7,88.7,74.4,88.6z M103.8,100.8
		c-3.4,6.3-9.9,7.7-15.2,2.8c-2.5-2.3-6.3-4.2-5.4-10.5c3,2.6,4.6,4.8,6.7,5.5c2.1,0.7,4.7,0,7.1-0.2c-0.3-2-0.4-4.1-1.1-6
		c-0.5-1.3-2.1-2.2-2.9-3.5c-0.4-0.7-0.4-2.1,0-2.6c0.7-0.7,2-1.3,2.9-1.2C101.9,85.9,106.6,95.5,103.8,100.8z M99.2,81.2
		c0.2-0.9,0.4-1.9,0.6-2.8c9.9,1.9,19.8,3.8,29.8,5.7c-0.2,0.9-0.3,1.7-0.5,2.6C119.1,84.9,109.1,83.1,99.2,81.2z"/>
</g>
</svg>
