<?xml version="1.0" encoding="utf-8"?>
<!-- Generator: Adobe Illustrator 19.0.1, SVG Export Plug-In . SVG Version: 6.00 Build 0)  -->
<svg version="1.1" id="Layer_1" xmlns="http://www.w3.org/2000/svg"  x="0px" y="0px"
	 viewBox="0 0 150 150" style="enable-background:new 0 0 150 150;" xml:space="preserve">
<style type="text/css">
	.st0{fill:#D22027;}
</style>
<g>
	<path class="st0" d="M59.6,91.2c-0.2,0-0.6,0.5-0.6,0.7c0.1,0.3,0.5,0.7,0.7,0.7c1,0.1,2,0,3,0c0-0.1,0-0.2,0-0.2
		c-0.5-0.3-0.9-0.7-1.5-0.9C60.8,91.2,60.2,91.1,59.6,91.2z"/>
	<path class="st0" d="M67.7,93.5c0.8,0.1,1.6,0.3,2.4,0.4c0-0.1,0-0.2,0.1-0.3c-0.8-0.2-1.6-0.4-2.4-0.6
		C67.8,93.1,67.8,93.3,67.7,93.5z"/>
	<path class="st0" d="M37.3,60c-0.7,0.3-1.5,0.5-2.2,0.8c-1.9,0.8-3.9,0.9-5.9,0.4c-2.6-0.7-2.9-0.6-3.4,2.1c-0.6,3.1-1,6.3-1.3,9.5
		c-0.5,5.5,0.4,10.8,2.1,15.9c0.1,0.4,0.4,0.8,0.6,1.3c0.4-0.2,0.8-0.3,1.1-0.5c1.3-0.8,2.7-0.9,4.1-0.4c1.4,0.5,2.8,1.3,4.2,1.9
		c0.3,0.1,0.6,0.3,0.9,0.4C35.8,80.9,35.8,70.5,37.3,60z"/>
	<path class="st0" d="M101.1,86.5c-2.4-2.5-4.7-5.2-7.4-7.4C88,74.4,82,69.9,76.2,65.3c-1-0.8-1.8-0.8-2.8-0.2
		c-0.4,0.2-0.8,0.5-1.2,0.6c-2.4,1-4.7,2.3-7.2,3c-1.5,0.5-3.3,0.3-4.9,0.2c-1.4-0.1-2.4-1.1-2.9-2.4c-0.5-1.4,0-2.6,1.1-3.6
		c0.9-0.8,1.8-1.7,2.9-2.2c3-1.7,6-3.2,9.1-4.8c0.3-0.1,0.5-0.3,0.8-0.4c0-0.1,0-0.2,0-0.3c-1.8-0.1-3.6-0.3-5.4-0.3
		c-3.4,0.1-6.6,1.4-9.7,2.6c-4.9,1.8-9.8,4-15.1,4.2c-0.8,0-0.7,0.6-0.8,1.1c-0.8,5-0.7,10.1-0.7,15.1c0,2.1,0.1,4.3,0.2,6.5
		c0.8-0.2,1.4-0.4,2-0.5c2-0.4,4.1-1.2,6.1-0.5c2,0.7,3.8,1.8,5.7,2.8c0.7,0.4,1.2,0.8,2.1,0.8c0.8,0,1.5,0.6,2.3,0.8
		c0.4,0.1,0.9,0.3,1.2,0.2c1.5-0.5,3-0.3,4.3,0.6c0.7,0.5,1.3,1,2.1,1.4c0.4,0.2,0.9,0.2,1.3,0.2c1,0,2.1-0.4,3-0.1
		c4.7,1.1,9.4,2.4,14.1,3.7c1.6,0.4,3.2,0.8,4.8,1.1c0-0.1,0.1-0.2,0.1-0.3c-4.1-1.9-8.1-3.9-12.2-5.8c-0.9-0.4-1.9-0.7-2.9-0.9
		c-1.1-0.3-1.6-0.8-1.5-1.7c0.1-0.8,0.9-1.4,1.9-1.2c1,0.2,2,0.4,2.9,0.9c4.1,1.9,8.2,3.9,12.3,5.8c1.7,0.8,3.4,1.5,5.1,2.2
		c0.4,0.2,0.9,0.1,1.3,0.2c0-0.1,0-0.2,0.1-0.3c-0.2-0.1-0.3-0.3-0.5-0.4c-2.1-1.3-4.2-2.5-6.3-3.8c-4.5-2.8-8.4-6.3-13.4-8.2
		c-0.7-0.3-0.9-1-0.7-1.7c0.2-0.7,0.7-1.1,1.5-1.1c0.6,0.1,1.3,0.2,1.8,0.5c2.5,1.4,4.9,2.9,7.3,4.4c3.7,2.3,7.4,4.7,11.1,7.1
		c0.6,0.4,1.4,0.6,2.2,0.7c0.3,0.1,0.7-0.3,1.1-0.4c-0.2-0.3-0.4-0.7-0.6-0.9c-2.7-2-5.5-4.1-8.3-6.1c-4-2.9-7.6-6.4-12.1-8.5
		c-0.7-0.3-1-1-0.7-1.8c0.3-0.7,0.9-1.1,1.7-0.9c0.6,0.1,1.2,0.4,1.7,0.7c1.2,0.8,2.5,1.5,3.7,2.4c4.8,3.6,9.6,7.3,14.4,10.9
		c0.6,0.4,1.2,0.8,1.8,1.1c0.2,0.1,0.6,0.1,0.7-0.1c0.1-0.1,0.1-0.5,0-0.7C101.5,86.9,101.2,86.7,101.1,86.5z"/>
	<path class="st0" d="M54.8,90.2c-0.2,0-0.6,0.5-0.8,0.7c0.4,0.2,0.7,0.4,1.1,0.5c0.2,0.1,0.5,0,0.8,0c0-0.2,0.1-0.5,0-0.5
		C55.6,90.6,55.2,90.3,54.8,90.2z"/>
	<path class="st0" d="M75,0C33.6,0,0,33.6,0,75s33.6,75,75,75s75-33.6,75-75S116.4,0,75,0z M127.4,89.7c-0.2,0.8-0.6,1.6-1,2.4
		c-1,1.7-2.3,2.2-4.2,1.6c-0.4-0.1-0.8-0.2-1.2-0.5c-1.4-1-2.7-0.8-4.2-0.2c-2,0.7-4.1,1.2-6.2,1.4c-2.9,0.4-4.7-1.3-5.3-4.6
		c-0.1-0.5-0.2-1.1-0.3-1.7c-0.6,0.8-0.9,1.6-1.5,2.1c-0.7,0.6-1.2,1.1-1.5,2.1c-0.4,1.3-1.5,1.9-2.8,2c-0.6,0.1-1,0.3-1.3,1
		c-0.7,1.6-2.4,2.3-4.3,1.8c-0.8-0.2-1.4-0.2-2.1,0.3c-1.1,0.9-2.6,0.9-3.9,0.6c-3.2-0.7-6.3-1.6-9.4-2.3c-0.6-0.1-1.3-0.1-1.9,0.1
		c-2.3,0.7-4.6,1.3-7.1,1.1c-0.9-0.1-1.9-0.4-2.8-0.7c-0.7-0.2-1.4-0.5-2.1-0.5c-1.3-0.1-2.7,0.1-4-0.1c-1-0.1-2-0.5-3-0.8
		c-0.4-0.1-0.8-0.2-1.2-0.3c-0.8-0.1-1.7,0-2.5-0.2c-1.1-0.2-2-0.7-2.5-1.8c-0.3-0.7-0.7-0.9-1.4-1.1c-2.5-0.5-3.2-1.9-2.6-4.8
		c-0.3-0.1-0.7-0.2-1.1-0.3c-0.7-0.1-1,0.2-1.1,0.9c-0.2,1.3-0.3,2.7-0.7,4c-1.1,4.2-3.6,5.3-7.5,3.4c-1.4-0.7-2.8-1.5-4.2-2.2
		c-1.2-0.6-2.3-0.7-3.6,0c-2.3,1.3-3.9,0.8-4.9-1.7c-1-2.7-1.7-5.5-2.3-8.3c-1.2-6.5-0.8-13,0.8-19.4c0.3-1.2,0.8-2.4,1.4-3.5
		c0.9-1.5,2.1-2.2,3.7-1.6c3.1,1,5.9,0.6,8.7-0.8c1-0.5,2-0.7,3.1-0.9c1.6-0.4,3,0,4.1,1.2c0.6,0.7,1.3,0.8,2.1,0.5
		c3.7-1.4,7.5-2.7,11.2-4c3.5-1.2,7.1-2.4,10.9-2c2.5,0.3,4.9,0.9,7.4,1.3c0.4,0.1,0.9,0.2,1.3,0.1c3.5-1.3,6.9-0.8,10.3,0.2
		c4.2,1.3,8.3,2.8,12.4,4.1c1.5,0.5,3.1,1.1,4.8,0.7c0.4-0.1,0.8-0.2,1-0.5c1.5-1.8,3.4-2.2,5.5-2.1c1.6,0.1,3.1,0.6,4.7,0.8
		c1,0.1,2.1,0.1,3.1,0c1.5-0.2,2.9-0.5,4.4-0.8c1.1-0.2,1.9,0.3,2.5,1.1c1.4,1.9,2,4.2,2.3,6.4c0.5,4.3,1.1,8.7,1.2,13
		C128.8,80.9,128.7,85.3,127.4,89.7z"/>
	<path class="st0" d="M106.5,60.8c-1.1,0.4-2.4,0.7-3.6,0.6c-1.8-0.2-3.6-0.6-5.4-1.2c-3.7-1.2-7.4-2.6-11.2-3.7
		c-2.4-0.7-4.9-1.5-7.3-0.7C75.5,57,72,58.4,68.6,60c-2.8,1.3-5.3,3-7.9,4.6c-0.3,0.2-0.4,0.6-0.6,1c0.4,0.2,0.7,0.5,1.1,0.5
		c1.3-0.1,2.8-0.1,4-0.5c2.2-0.8,4.3-1.9,6.4-2.9c2.9-1.4,6-1.9,9.2-2.1c1-0.1,1.7,0.6,1.7,1.5c0,0.8-0.7,1.4-1.6,1.5
		c-0.5,0-1,0.1-1.7,0.2c0.4,0.4,0.7,0.6,1,0.8c2.3,1.8,4.6,3.6,6.9,5.4c5.7,4.3,11.2,8.7,15.8,14.1c0.9,1,1.6,1.4,2.9,0.8
		c0.3-0.1,0.6-0.2,0.9-0.2c1.2,0,2.5,0,3.8,0c0-0.2,0.1-0.4,0.1-0.6c0.1-5.5,0.2-10.9,0.2-16.4c0-1.7-0.3-3.4-0.7-5.1
		C109.5,60.8,108.1,60.3,106.5,60.8z"/>
	<path class="st0" d="M123.8,60.4c-0.5-1.7-0.7-1.7-2.4-1.3c-2.9,0.7-5.8,1.3-8.7,0c-0.4-0.2-0.8-0.1-1.5-0.1
		c1.6,2.1,2.1,4.3,2.1,6.6c0.1,4.8,0.3,9.6,0.2,14.4c-0.1,3.8-0.1,7.7-1.6,11.5c1.1-0.3,2.2-0.5,3.1-0.9c2.6-1.2,5.1-1.6,7.6,0.2
		c0,0,0.1,0,0.1,0c0.6,0.3,1,0.1,1.3-0.5c0.3-0.8,0.7-1.6,0.8-2.5c1-4.9,1.1-9.9,0.9-14.9C125.5,68.7,125.1,64.4,123.8,60.4z"/>
</g>
</svg>
